<svg width="86" height="46" viewBox="0 0 86 46" fill="none" xmlns="http://www.w3.org/2000/svg">
<g clip-path="url(#clip0_303_17789)">
<path fill-rule="evenodd" clip-rule="evenodd" d="M0 45.6874L8.85346 45.6851L22.1995 22.3522L12.8778 22.2242L0 45.6874Z" fill="#6E44FD"/>
<path fill-rule="evenodd" clip-rule="evenodd" d="M22.1994 22.3522L12.9012 22.3072L4.63843 7.70813H13.7202L22.1994 22.3522Z" fill="#6E44FD"/>
<path fill-rule="evenodd" clip-rule="evenodd" d="M22.6678 24.1478L17.9751 31.901L20.9215 37.0366H30.1562L22.6678 24.1478Z" fill="#070719"/>
<path fill-rule="evenodd" clip-rule="evenodd" d="M22.6443 20.957L18.0952 13.0285L25.5672 0H34.7831L22.6443 20.957Z" fill="#070719"/>
<path d="M32.3967 30.8303C30.2599 30.8303 28.716 30.3083 27.7653 29.2645C26.8145 28.2206 26.5792 26.6832 27.0593 24.6524C27.1581 24.2283 27.3275 23.5793 27.5652 22.7004C27.8029 21.8216 27.9865 21.1631 28.1206 20.7248C28.72 18.7256 29.7947 17.185 31.3448 16.1033C32.8949 15.0215 34.7187 14.4822 36.8164 14.4854C38.9093 14.4854 40.4367 15.027 41.3984 16.1104C42.3602 17.1937 42.6057 18.7327 42.1351 20.7272C41.928 21.6037 41.7648 22.2622 41.6456 22.7028C41.5263 23.1434 41.3357 23.7941 41.0737 24.6547C40.4461 26.684 39.38 28.2214 37.8754 29.2668C36.3708 30.3123 34.5446 30.8334 32.3967 30.8303ZM33.3169 27.4239C34.0668 27.4361 34.7975 27.1848 35.3832 26.7132C35.9778 26.2395 36.4234 25.5091 36.7199 24.5221C36.9882 23.6425 37.1733 23.0108 37.2753 22.627C37.3773 22.2433 37.5279 21.6297 37.7272 20.7864C37.9625 19.8042 37.9123 19.0738 37.5765 18.5953C37.2408 18.1168 36.6807 17.8799 35.8962 17.8846C35.1394 17.8696 34.4011 18.1209 33.8088 18.5953C33.2126 19.069 32.7662 19.7994 32.4697 20.7864C32.3403 21.2105 32.1685 21.824 31.9496 22.627C31.7307 23.43 31.5683 24.072 31.4648 24.5221C31.2263 25.5043 31.2765 26.2347 31.6154 26.7132C31.9519 27.187 32.5215 27.4263 33.3169 27.4263V27.4239Z" fill="#070719"/>
<path d="M42.9211 29.9704L46.5194 16.66C46.5965 16.3735 46.7266 16.1042 46.903 15.8664C47.0751 15.6304 47.2832 15.4233 47.5196 15.2529C47.7489 15.089 47.998 14.9553 48.261 14.8549C48.4997 14.7613 48.7531 14.7116 49.0093 14.7081H50.7697C50.8356 14.7 50.9024 14.7106 50.9627 14.7387C51.0229 14.7667 51.0743 14.811 51.1109 14.8668C51.1489 14.9271 51.1729 14.9953 51.1811 15.0662C51.1892 15.1372 51.1813 15.2091 51.158 15.2766L48.1809 26.2916C48.1519 26.442 48.1734 26.5979 48.2421 26.7346C48.2793 26.8204 48.3427 26.8919 48.4231 26.9388C48.5036 26.9857 48.5969 27.0055 48.6893 26.9951H54.7375C54.8071 26.99 54.8771 27.0005 54.9422 27.0259C55.0073 27.0513 55.066 27.0909 55.114 27.142C55.1587 27.2015 55.1873 27.2715 55.1972 27.3454C55.2071 27.4192 55.1979 27.4944 55.1705 27.5637L54.5186 29.9704C54.4773 30.1396 54.3771 30.2883 54.2362 30.3897C54.1034 30.4863 53.9435 30.5377 53.7797 30.5365H43.3329C43.2667 30.5371 43.2014 30.5209 43.143 30.4895C43.0846 30.458 43.035 30.4123 42.9988 30.3565C42.9564 30.3029 42.9273 30.2399 42.9138 30.1728C42.9003 30.1057 42.9028 30.0363 42.9211 29.9704Z" fill="#070719"/>
<path d="M70.5617 14.708C70.6328 14.7032 70.7041 14.7163 70.769 14.7461C70.8339 14.7758 70.8904 14.8214 70.9335 14.8786C70.9734 14.9357 70.9996 15.0013 71.0102 15.0703C71.0209 15.1394 71.0155 15.2099 70.9947 15.2765L70.3075 17.8183C70.2631 17.9829 70.1644 18.1275 70.0275 18.2281C69.8928 18.3328 69.727 18.3887 69.5568 18.3868H64.3323C64.4836 18.3812 64.634 18.4113 64.7717 18.4746C64.9094 18.538 65.0305 18.6328 65.1254 18.7516C65.2205 18.862 65.2863 18.9948 65.3167 19.1377C65.3472 19.2806 65.3413 19.4289 65.2995 19.5688L62.4872 29.9703C62.4451 30.1311 62.3432 30.2694 62.2025 30.3564C62.0754 30.4602 61.9165 30.5163 61.753 30.5152H58.6088C58.5401 30.5212 58.4709 30.5098 58.4076 30.4821C58.3443 30.4544 58.2889 30.4112 58.2464 30.3564C58.1983 30.3062 58.1655 30.2431 58.1522 30.1746C58.1388 30.1061 58.1454 30.0351 58.1711 29.9703L61.1175 19.0737C61.1491 18.9914 61.1595 18.9024 61.1475 18.815C61.1356 18.7275 61.1018 18.6446 61.0493 18.5739C60.9968 18.5135 60.9315 18.4657 60.8581 18.4341C60.7848 18.4026 60.7054 18.388 60.6257 18.3915H57.3592C57.2908 18.3943 57.2227 18.3814 57.1599 18.3539C57.0972 18.3264 57.0414 18.285 56.9968 18.2328C56.9508 18.1765 56.9201 18.1091 56.9078 18.0373C56.8954 17.9654 56.9017 17.8916 56.9262 17.823L57.2392 16.6646C57.3172 16.3781 57.4482 16.1089 57.6251 15.8711C57.9666 15.4017 58.4394 15.0454 58.983 14.8478C59.2232 14.7609 59.4762 14.7152 59.7314 14.7127L70.5617 14.708Z" fill="#070719"/>
<path d="M85.5459 14.708C85.6171 14.7032 85.6883 14.7163 85.7532 14.7461C85.8181 14.7758 85.8746 14.8214 85.9177 14.8786C85.9586 14.9352 85.9855 15.0009 85.9961 15.0701C86.0068 15.1393 86.0009 15.2101 85.9789 15.2765L85.2917 17.8183C85.2482 17.9833 85.1493 18.1281 85.0117 18.2281C84.8772 18.3332 84.7112 18.3891 84.541 18.3868H79.3188C79.4701 18.381 79.6207 18.411 79.7584 18.4744C79.8961 18.5377 80.0172 18.6327 80.1119 18.7516C80.2074 18.8618 80.2735 18.9946 80.304 19.1375C80.3344 19.2805 80.3283 19.4289 80.2861 19.5688L77.462 29.9703C77.4208 30.1315 77.3186 30.2701 77.1773 30.3564C77.0502 30.4602 76.8913 30.5163 76.7277 30.5152H73.6025C73.5334 30.5212 73.4638 30.5098 73.4002 30.4821C73.3365 30.4544 73.2807 30.4112 73.2377 30.3564C73.1895 30.3062 73.1568 30.2431 73.1434 30.1746C73.1301 30.1061 73.1367 30.0352 73.1624 29.9703L76.1088 19.0737C76.1404 18.9914 76.1507 18.9024 76.1388 18.815C76.1268 18.7275 76.0931 18.6446 76.0406 18.5739C75.9883 18.5132 75.923 18.4653 75.8496 18.4337C75.7762 18.4021 75.6967 18.3877 75.617 18.3915H72.3457C72.2771 18.3934 72.2089 18.3802 72.1459 18.3528C72.0829 18.3254 72.0266 18.2844 71.981 18.2328C71.9348 18.1766 71.9041 18.1091 71.8921 18.0371C71.8802 17.9652 71.8873 17.8913 71.9127 17.823L72.2257 16.6646C72.3027 16.3782 72.4329 16.1089 72.6093 15.8711C72.7839 15.633 72.9924 15.4223 73.2283 15.2457C73.4543 15.078 73.7032 14.944 73.9672 14.8478C74.2075 14.761 74.4604 14.7154 74.7156 14.7127L85.5459 14.708Z" fill="#070719"/>
</g>
<defs>
<clipPath id="clip0_303_17789">
<rect width="86" height="45.6875" fill="white"/>
</clipPath>
</defs>
</svg>
